<?xml version="1.0" standalone="no"?>
<!DOCTYPE svg PUBLIC "-//W3C//DTD SVG 20010904//EN"
 "http://www.w3.org/TR/2001/REC-SVG-20010904/DTD/svg10.dtd">
<svg version="1.0" xmlns="http://www.w3.org/2000/svg"
 width="384.000000pt" height="410.000000pt" viewBox="0 0 384.000000 410.000000"
 preserveAspectRatio="xMidYMid meet">

<g transform="translate(0.000000,410.000000) scale(0.100000,-0.100000)"
fill="#000000" stroke="none">
<path d="M3005 3988 c-65 -22 -75 -28 -75 -43 0 -8 -6 -15 -12 -16 -35 -2 -94
-118 -69 -134 6 -3 11 -21 11 -40 0 -19 5 -37 10 -40 6 -3 10 -15 10 -26 0
-10 6 -19 13 -19 14 0 51 38 60 61 4 11 23 19 59 24 29 4 63 14 75 22 20 14
26 13 56 -6 18 -11 39 -36 47 -56 7 -19 19 -35 24 -35 6 0 22 -3 35 -7 22 -6
23 -4 17 34 -6 30 -3 43 8 53 27 21 20 75 -14 112 -17 18 -33 40 -36 50 -3 9
-22 22 -42 29 -20 6 -51 20 -68 30 -34 21 -63 22 -109 7z"/>
<path d="M1850 3714 c-63 -19 -478 -138 -921 -265 l-807 -231 14 -51 c7 -28
12 -52 11 -53 -1 -1 -18 -9 -37 -18 -20 -9 -25 -13 -10 -9 52 13 52 12 82
-106 23 -91 26 -116 16 -122 -10 -7 -10 -9 2 -9 12 0 23 -30 44 -115 15 -63
25 -119 21 -125 -3 -5 -1 -10 4 -10 18 0 12 -28 -7 -33 -13 -4 -13 -5 4 -6 19
-1 25 -13 43 -88 12 -49 23 -98 26 -111 2 -12 6 -26 10 -31 3 -5 -3 -12 -12
-14 -16 -4 -16 -5 -1 -6 11 -1 21 -15 27 -38 42 -160 49 -198 40 -202 -6 -2
-4 -8 4 -15 8 -6 25 -53 37 -105 19 -78 21 -95 9 -102 -11 -7 -10 -9 5 -9 12
0 16 -5 13 -14 -3 -8 -2 -16 2 -18 14 -5 60 -208 47 -208 -7 0 -7 -3 1 -8 14
-9 75 -231 67 -244 -3 -4 0 -8 5 -8 18 0 12 -28 -6 -33 -15 -4 -14 -5 3 -6 18
-1 24 -16 48 -118 22 -93 25 -118 14 -124 -10 -7 -9 -9 3 -9 12 0 23 -25 42
-100 23 -92 23 -101 8 -111 -15 -10 -15 -10 1 -5 9 2 19 -2 22 -10 3 -8 0 -14
-7 -14 -9 0 -8 -3 1 -9 7 -4 25 -52 38 -106 20 -79 23 -100 12 -106 -10 -7 -8
-9 6 -9 12 0 16 -5 13 -15 -4 -8 -2 -17 3 -20 4 -3 11 -23 15 -45 4 -22 11
-42 15 -45 5 -3 385 103 846 235 460 132 839 238 841 236 2 -2 -3 -77 -11
-167 -20 -200 -20 -270 -2 -294 11 -15 11 -22 -1 -44 -7 -14 -22 -51 -33 -81
-19 -53 -33 -78 -85 -149 -32 -44 -33 -94 -3 -115 26 -18 96 -21 151 -5 27 7
44 20 58 44 13 22 33 38 57 46 54 17 65 28 58 63 -3 17 -10 62 -15 100 -6 38
-13 77 -16 87 -5 15 -1 19 18 19 29 0 26 -24 63 450 l26 345 89 349 c48 191
90 350 92 352 2 3 11 2 19 -1 13 -5 16 -60 22 -388 7 -343 5 -403 -13 -587
-33 -334 -36 -423 -17 -442 20 -20 21 -38 2 -38 -9 0 -16 -19 -21 -57 -3 -32
-13 -78 -21 -103 -15 -43 -15 -45 6 -62 12 -10 33 -18 45 -18 34 0 73 -17 109
-46 28 -24 36 -26 101 -22 78 5 128 24 133 51 2 10 -18 37 -51 69 -54 52 -118
144 -143 204 -12 29 -11 32 10 42 21 9 24 19 30 99 21 261 89 975 110 1148 45
370 50 531 18 592 -9 16 -9 22 0 25 8 3 8 13 0 38 -14 45 -36 209 -28 217 29
29 73 -324 61 -490 -6 -79 -5 -101 6 -108 8 -5 45 -9 82 -9 79 0 84 6 70 78
-6 33 -4 97 9 217 10 98 15 202 12 245 -13 176 -75 579 -98 635 -21 49 -72
101 -134 136 -93 52 -122 77 -122 105 0 24 -2 23 -38 -16 -22 -22 -46 -40 -54
-40 -9 0 -41 28 -73 61 l-56 62 -27 -31 c-21 -24 -42 -35 -93 -46 -109 -25
-177 -54 -204 -90 -58 -77 -133 -295 -175 -514 -29 -152 -27 -201 15 -302 69
-165 125 -270 143 -270 10 0 44 18 77 40 l60 40 37 -43 c21 -23 38 -44 38 -47
0 -3 -29 -15 -64 -27 -46 -15 -67 -18 -75 -10 -8 8 -11 1 -11 -25 0 -20 -13
-127 -29 -239 -26 -182 -47 -358 -54 -459 -1 -21 -114 412 -285 1095 -156 621
-288 1135 -294 1142 -13 16 1 18 -138 -23z m-1548 -569 c9 -19 8 -29 -6 -50
-16 -25 -50 -34 -61 -16 -3 6 4 15 15 21 29 16 25 30 -10 30 -28 0 -30 2 -20
20 16 30 67 27 82 -5z m-52 -35 c-20 -13 -40 -13 -40 0 0 6 12 10 28 10 21 0
24 -2 12 -10z m1518 -93 c6 -7 31 -96 57 -197 25 -102 48 -192 50 -200 3 -8 1
-20 -3 -27 -10 -15 -910 -275 -941 -271 -23 3 -28 14 -73 193 -55 221 -57 242
-25 250 13 4 223 64 468 135 244 71 447 129 450 129 4 1 11 -5 17 -12z m-1406
-122 c16 -35 -3 -75 -35 -75 -37 0 -40 12 -10 37 l28 22 -32 1 c-33 0 -47 23
-20 33 31 13 58 6 69 -18z m-55 -36 c-14 -8 -22 -8 -30 0 -8 8 -3 11 19 11 25
-1 27 -2 11 -11z m2340 -138 c-4 -53 -10 -113 -13 -134 l-7 -38 -18 28 c-20
29 -26 107 -10 117 5 3 15 35 22 70 18 95 33 71 26 -43z m-2236 -61 c23 -13
26 -62 5 -80 -18 -14 -62 -9 -58 8 1 6 -2 12 -8 12 -5 0 -10 5 -10 11 0 7 12
10 30 7 17 -3 30 -1 30 4 0 4 -13 8 -30 8 -32 0 -37 9 -18 28 15 15 33 15 59
2z m70 -261 c11 -11 18 -27 15 -36 -3 -8 -6 -19 -6 -23 0 -5 -9 -14 -20 -20
-46 -24 -90 41 -55 80 23 25 40 25 66 -1z m59 -249 c25 -25 25 -41 2 -70 -13
-17 -24 -21 -40 -16 -29 10 -28 20 4 34 27 13 24 32 -4 32 -14 0 -14 -2 -3 -9
11 -7 9 -11 -8 -20 -11 -7 -21 -10 -22 -9 -7 28 -4 43 12 59 24 24 34 24 59
-1z m73 -261 c16 -25 0 -68 -28 -75 -41 -10 -50 6 -19 33 l29 24 -28 -17 c-15
-9 -31 -14 -35 -10 -3 4 0 11 7 15 11 7 11 9 0 13 -12 4 -12 8 0 22 17 20 60
18 74 -5z m55 -241 c17 -17 15 -63 -2 -78 -18 -14 -62 -9 -58 8 1 6 -2 12 -8
12 -5 0 -10 5 -10 11 0 7 12 10 30 7 17 -3 30 -1 30 4 0 4 -14 8 -30 8 -28 0
-30 2 -20 20 12 22 49 27 68 8z m67 -258 c29 -32 10 -74 -34 -78 -27 -3 -33 0
-28 12 4 10 1 16 -8 16 -8 0 -15 5 -15 10 0 6 12 10 26 10 16 0 23 -4 18 -12
-4 -7 -3 -8 4 -4 22 13 12 26 -20 26 -30 0 -31 0 -13 20 23 26 47 25 70 0z
m57 -247 c10 -9 18 -25 18 -36 0 -23 -27 -57 -46 -57 -39 0 -61 79 -26 99 24
14 33 13 54 -6z m76 -289 c3 -18 -2 -33 -14 -41 -34 -25 -65 -10 -70 35 -5 42
29 69 61 48 11 -7 22 -26 23 -42z m56 -220 c21 -20 20 -37 -2 -64 -15 -18 -25
-22 -46 -16 -15 4 -24 11 -21 16 3 6 1 10 -4 10 -22 0 -10 20 12 21 l22 2 -22
4 c-19 4 -21 8 -13 24 13 23 53 25 74 3z"/>
<path d="M1298 2802 c-95 -28 -118 -39 -118 -54 0 -10 6 -18 13 -18 17 0 247
66 254 74 9 9 -5 36 -19 35 -7 0 -66 -17 -130 -37z"/>
<path d="M1360 2699 c-113 -32 -222 -64 -242 -70 -28 -7 -38 -15 -38 -29 0
-13 7 -20 18 -19 9 0 127 33 262 72 179 53 245 76 245 87 0 26 -35 20 -245
-41z"/>
<path d="M1353 2577 c-227 -66 -278 -88 -237 -104 8 -3 106 20 217 52 315 90
297 83 297 105 0 13 -6 20 -17 19 -10 -1 -127 -33 -260 -72z"/>
<path d="M428 2373 c13 -3 19 -9 16 -15 -4 -7 -2 -8 4 -4 21 13 13 26 -15 25
-24 -2 -25 -2 -5 -6z"/>
<path d="M750 1111 l25 -7 -23 -8 c-13 -4 -21 -10 -19 -13 3 -2 15 0 26 7 26
13 18 30 -12 29 -20 -1 -20 -2 3 -8z"/>
<path d="M819 861 c11 -7 10 -11 -5 -20 -11 -6 -14 -11 -8 -11 6 0 17 6 23 13
11 14 5 27 -13 27 -6 0 -5 -4 3 -9z"/>
<path d="M78 3053 c6 -2 18 -2 25 0 6 3 1 5 -13 5 -14 0 -19 -2 -12 -5z"/>
<path d="M107 2823 c-16 -15 -5 -23 31 -21 l37 1 -34 4 c-26 3 -31 7 -20 14 8
5 9 9 3 9 -6 0 -14 -3 -17 -7z"/>
<path d="M188 2813 c7 -3 16 -2 19 1 4 3 -2 6 -13 5 -11 0 -14 -3 -6 -6z"/>
<path d="M179 2569 l-24 -20 30 17 c39 24 40 24 28 24 -6 0 -21 -9 -34 -21z"/>
<path d="M203 2553 c9 -2 23 -2 30 0 6 3 -1 5 -18 5 -16 0 -22 -2 -12 -5z"/>
<path d="M248 2324 c-39 -21 -35 -28 5 -8 37 19 44 24 31 24 -5 -1 -21 -8 -36
-16z"/>
<path d="M278 2303 c6 -2 18 -2 25 0 6 3 1 5 -13 5 -14 0 -19 -2 -12 -5z"/>
<path d="M297 2063 c-14 -14 -6 -23 21 -22 23 2 24 2 4 6 -12 2 -20 9 -17 14
7 10 1 12 -8 2z"/>
<path d="M358 2053 c7 -3 16 -2 19 1 4 3 -2 6 -13 5 -11 0 -14 -3 -6 -6z"/>
<path d="M3440 1865 c-7 -9 -10 -18 -7 -21 9 -9 48 16 42 27 -9 13 -21 11 -35
-6z"/>
<path d="M375 1820 c-3 -6 1 -7 9 -4 18 7 21 14 7 14 -6 0 -13 -4 -16 -10z"/>
<path d="M350 1798 c0 -4 14 -8 30 -8 17 0 30 2 30 4 0 2 -13 6 -30 8 -16 3
-30 1 -30 -4z"/>
<path d="M428 1803 c7 -3 16 -2 19 1 4 3 -2 6 -13 5 -11 0 -14 -3 -6 -6z"/>
<path d="M3316 1797 c-11 -8 -15 -17 -10 -20 14 -8 37 8 33 22 -3 8 -10 8 -23
-2z"/>
<path d="M429 1560 l-24 -19 40 1 c33 1 35 2 10 5 l-30 5 25 14 c14 7 20 13
14 14 -7 0 -22 -9 -35 -20z"/>
<path d="M508 1553 c7 -3 16 -2 19 1 4 3 -2 6 -13 5 -11 0 -14 -3 -6 -6z"/>
<path d="M503 1318 c-13 -6 -23 -15 -23 -20 0 -7 31 8 59 29 10 7 -16 1 -36
-9z"/>
<path d="M528 1293 c6 -2 18 -2 25 0 6 3 1 5 -13 5 -14 0 -19 -2 -12 -5z"/>
<path d="M545 1050 c-7 -11 22 -26 32 -16 4 3 -1 6 -11 6 -9 0 -14 5 -11 10 3
6 4 10 1 10 -3 0 -8 -5 -11 -10z"/>
<path d="M598 1043 c6 -2 18 -2 25 0 6 3 1 5 -13 5 -14 0 -19 -2 -12 -5z"/>
<path d="M625 810 c-3 -6 1 -7 9 -4 18 7 21 14 7 14 -6 0 -13 -4 -16 -10z"/>
<path d="M609 787 c5 -5 19 -7 32 -5 20 3 19 5 -9 9 -20 3 -29 2 -23 -4z"/>
<path d="M678 793 c7 -3 16 -2 19 1 4 3 -2 6 -13 5 -11 0 -14 -3 -6 -6z"/>
<path d="M688 559 c-28 -16 -21 -29 15 -28 l32 2 -30 4 -30 5 25 14 c14 7 21
13 15 13 -5 0 -18 -4 -27 -10z"/>
<path d="M748 543 c7 -3 16 -2 19 1 4 3 -2 6 -13 5 -11 0 -14 -3 -6 -6z"/>
</g>
</svg>
